<svg width="233" height="125" viewBox="0 0 233 125" fill="none" xmlns="http://www.w3.org/2000/svg">
<path d="M58.5786 71.6719C56.6826 71.6719 54.9033 70.651 54.9033 68.6092C54.9033 66.5674 56.1576 65.5465 57.7618 65.5465C59.3661 65.5465 58.2577 65.7215 58.2577 65.9257C58.2577 66.1299 58.0827 66.3633 57.8202 66.3924C56.5951 66.6258 55.9826 67.5592 55.9826 68.4342C55.9826 69.7176 57.0618 70.3302 58.1994 70.3302C59.3369 70.3302 61.1162 69.4551 61.1162 67.8509C61.1162 66.2466 60.387 66.0132 59.5995 65.1965C58.6952 64.2923 57.7618 63.3589 57.7618 61.9296C57.7618 60.5004 58.8994 58.9544 61.1454 58.9544C63.3914 58.9544 64.0331 60.2379 64.0331 61.5213C64.0331 62.8047 63.7997 62.7755 63.3914 63.2422C63.3039 63.3589 63.158 63.3881 63.0413 63.3881C62.7788 63.3881 62.5455 63.1839 62.5455 62.9214C62.5455 62.6588 62.5746 62.7172 62.6622 62.6005C62.8955 62.3088 63.0122 61.988 63.0122 61.6963C63.0122 60.9379 62.3413 60.2379 61.3496 60.2379C60.3578 60.2379 59.5411 60.7921 59.5411 61.7255C59.5411 62.6589 59.5411 61.9296 59.5703 62.0171C59.7161 62.7464 60.5912 63.4464 61.4079 64.3506C62.2246 65.2257 62.983 66.3341 62.983 67.8509C62.983 70.3593 60.737 71.6428 58.6077 71.6428L58.5786 71.6719Z" fill="#1C4639"/>
<path d="M65.6379 71.0883C64.3836 71.0883 63.6836 70.3882 63.6836 69.4548C63.6836 68.5214 63.7128 69.0173 63.8003 68.7548C64.0044 68.2006 65.4337 64.9045 66.5129 62.5127C66.5129 62.5127 66.5129 62.4544 66.4838 62.4544H65.6962C65.5212 62.4252 65.3754 62.2794 65.3754 62.0752C65.3754 61.871 65.5212 61.7252 65.6962 61.7252L66.8338 61.6668C66.863 61.6668 66.8921 61.6668 66.9213 61.6085C67.3297 60.7334 67.5922 60.0917 67.6505 59.9751C67.7672 59.7125 68.0005 59.5375 68.2922 59.5375H69.2839C69.4881 59.5375 69.634 59.7709 69.5465 59.9459C69.459 60.1501 69.1673 60.7918 68.8464 61.4626V61.521L69.6923 61.4626C70.1007 61.4626 70.3048 61.696 70.3048 61.9585C70.3048 62.221 70.1007 62.4835 69.6923 62.4835H68.4381C68.4089 62.4544 68.3797 62.4835 68.3506 62.4835C68.2339 62.7461 68.1464 62.9502 68.1172 63.0086C66.4254 66.7713 66.0171 67.6755 65.6379 68.6673C65.5504 68.8715 65.5212 69.0756 65.5212 69.2215C65.5212 69.5715 65.7254 69.7173 66.0171 69.7173C66.3088 69.7173 66.9796 69.4257 67.4463 68.9298C67.8839 68.4631 68.2631 67.8797 68.5256 67.4422C68.6131 67.2964 68.7297 67.238 68.8756 67.238C69.0798 67.238 69.2839 67.413 69.2839 67.7339C69.2839 68.0547 69.2256 68.0547 69.1381 68.2298C68.5547 69.1923 67.9422 70.1257 67.0963 70.6216C66.6296 70.8841 66.1337 71.0008 65.6671 71.0008L65.6379 71.0883Z" fill="#1C4639"/>
<path d="M72.5802 71.059C71.7343 71.059 70.976 70.709 70.7426 69.8923C70.6843 69.7464 70.6843 69.6006 70.6843 69.4256C70.6843 69.1922 70.7426 68.9589 70.8009 68.7255C71.0343 68.113 71.2385 67.5879 71.5885 66.8004C71.5885 66.8004 71.5885 66.7421 71.5885 66.7129C71.5885 66.6546 71.5593 66.5671 71.501 66.5379C71.2385 66.4212 70.7134 66.1879 70.4801 66.0712C70.3926 66.042 70.3634 66.0712 70.3051 66.1295C69.7217 67.2088 69.2259 68.0546 69.1092 68.2588C68.9925 68.4922 68.7592 68.5797 68.5841 68.5797C68.4091 68.5797 68.4383 68.5797 68.38 68.5505C68.2633 68.4922 68.1758 68.4047 68.1758 68.2297C68.1758 68.0546 68.2341 67.938 68.3508 67.7338C68.8175 66.9462 69.2258 66.1295 69.4884 65.6628C69.4884 65.6628 69.4884 65.6045 69.4884 65.5753C69.2258 65.4295 69.0508 65.2253 68.905 64.9919C68.7883 64.7878 68.73 64.5544 68.73 64.3502C68.73 64.1461 68.73 64.0586 68.8175 63.9127C68.9342 63.5919 69.2259 63.3585 69.5467 63.271C69.6634 63.2418 69.7509 63.2127 69.8676 63.2127C70.1301 63.2127 70.3926 63.3002 70.5968 63.5043C70.8301 63.7085 70.9468 64.0294 70.9468 64.3794C70.9468 64.7294 70.9468 64.6128 70.9176 64.7294C70.9176 64.7878 70.8885 64.8753 70.8593 64.9919C70.8593 64.9919 70.8593 65.0503 70.8885 65.0503C71.4718 65.2253 72.026 65.3711 72.376 65.4295C72.7844 65.517 73.1928 65.6628 73.3969 66.0712C73.4553 66.1879 73.4845 66.3337 73.4845 66.4504C73.4845 66.6837 73.397 66.9171 73.3094 67.1504L72.7844 68.5505C72.6386 68.9005 72.5219 69.163 72.5219 69.3672C72.5219 69.5714 72.5802 69.6006 72.6969 69.6881C72.7844 69.7756 72.9302 69.8048 73.0761 69.8048C73.2219 69.8048 73.4261 69.7464 73.6011 69.6589C74.3303 69.2506 75.0304 68.2297 75.4387 67.5588C75.5262 67.4129 75.6429 67.3546 75.7888 67.3546C75.9929 67.3546 76.1971 67.5296 76.1971 67.8505C76.1971 68.1713 76.168 68.1713 76.0513 68.3463C75.8763 68.638 75.7304 68.9297 75.5263 69.2214C74.797 70.3006 73.922 71.1173 72.6386 71.1173L72.5802 71.059ZM69.8384 64.7586H69.8967C69.8967 64.7003 69.9259 64.6419 69.9551 64.5836C69.9551 64.5252 69.9551 64.4669 69.9551 64.4377C69.9551 64.3502 69.9551 64.2919 69.8967 64.2627C69.8967 64.2627 69.8384 64.2336 69.8092 64.2336C69.7801 64.2336 69.78 64.2336 69.7509 64.2336C69.6925 64.2336 69.6634 64.2919 69.6342 64.3502C69.6342 64.3502 69.6342 64.4086 69.6342 64.4377C69.6342 64.4961 69.6342 64.5836 69.6925 64.6419C69.7217 64.7003 69.7801 64.7586 69.8384 64.8169V64.7586Z" fill="#1C4639"/>
<path d="M75.2342 68.5212C75.2342 67.9086 75.4093 67.2086 75.8176 66.4794C76.6052 65.0793 78.0344 63.9125 79.6095 63.9125C81.1846 63.9125 81.943 64.9626 81.943 66.421C81.943 67.8794 81.768 67.7919 81.3596 68.5503V68.6087C81.5638 68.667 81.7388 68.7253 81.9138 68.7253C82.5555 68.7253 83.0514 68.2586 83.5473 67.4128C83.6348 67.2669 83.7806 67.1794 83.8973 67.1794C84.1015 67.1794 84.2765 67.3544 84.2765 67.6461C84.2765 67.9378 84.2182 68.0545 84.0431 68.317C83.4306 69.3379 82.5555 69.8921 81.593 69.8921C80.6304 69.8921 80.9513 69.8337 80.6013 69.7171C80.5721 69.7171 80.5137 69.7171 80.5137 69.7171C79.6679 70.7088 78.6761 71.1172 77.8011 71.1172C76.2551 71.1172 75.2051 70.0088 75.2051 68.4628L75.2342 68.5212ZM78.2094 69.7462C78.6761 69.7462 79.2012 69.5421 79.6679 69.1045C79.6679 69.1045 79.6679 69.0462 79.6679 69.017C79.4637 68.7545 79.2887 68.4628 79.1428 68.0836C79.0262 67.7336 78.9386 67.2961 78.9386 66.8877C78.9386 66.2168 79.1428 65.546 79.6679 65.1376C79.7262 65.1084 79.7262 65.0793 79.6679 65.0793C78.7345 65.1376 77.4802 65.896 77.0719 67.7919C77.0135 67.9961 77.0135 68.2003 77.0135 68.3753C77.0135 69.2504 77.5386 69.7171 78.2386 69.7171L78.2094 69.7462ZM80.6013 67.9086C80.6013 67.9086 80.6304 67.9086 80.6596 67.9086C80.8929 67.3836 81.0096 66.8877 81.0096 66.5085C81.0096 66.1293 81.0096 66.3627 81.0096 66.3043C80.9513 66.0418 80.8346 65.9543 80.7179 65.9543C80.6013 65.9543 80.3971 66.1585 80.3387 66.421C80.3387 66.5377 80.3387 66.6252 80.3387 66.7419C80.3387 67.1211 80.4554 67.5586 80.6596 67.9378L80.6013 67.9086Z" fill="#1C4639"/>
<path d="M88.7985 71.0591C87.7485 71.0591 86.9609 70.4758 86.9609 69.4257C86.9609 68.3756 87.0193 68.8423 87.1359 68.5215C87.2526 68.1423 87.5735 67.4422 88.0402 66.3046C88.1568 66.0421 88.2443 65.7796 88.2443 65.5754C88.2443 65.3712 88.1277 65.1962 87.8651 65.1962C86.7567 65.1962 85.7358 66.8297 85.2691 67.9089C84.7733 69.0757 84.3066 70.0674 84.0441 70.6508C83.9274 70.9133 83.694 71.0591 83.4024 71.0591H82.4398C82.2356 71.0591 82.0898 70.8549 82.1773 70.6508C82.469 69.9799 83.3148 68.0839 84.9483 64.4087C85.065 64.1462 85.2983 64.0003 85.59 64.0003H86.5526C86.7567 64.0003 86.9026 64.2337 86.8151 64.4087V64.467C86.7567 64.5254 86.7567 64.5545 86.8151 64.4962C87.1943 64.1753 87.6318 63.9712 88.186 63.9712C89.1194 63.9712 89.9069 64.5545 89.9069 65.6921C89.9069 66.8297 89.8194 66.5088 89.6152 67.0339C89.4402 67.4714 88.9444 68.609 88.7985 69.0757C88.7985 69.134 88.7694 69.2215 88.7694 69.2798C88.7694 69.5715 89.0027 69.7174 89.3236 69.7174C89.6444 69.7174 89.6736 69.659 89.8486 69.5715C90.5778 69.1632 91.2779 68.1423 91.6862 67.4714C91.7737 67.3255 91.8904 67.2672 92.0362 67.2672C92.2404 67.2672 92.4446 67.4422 92.4446 67.7631C92.4446 68.0839 92.4154 68.0839 92.2988 68.2589C92.1237 68.5506 91.9779 68.8423 91.7737 69.134C91.0445 70.2132 90.1986 71.0008 88.9152 71.03C88.9152 71.03 88.886 71.03 88.8569 71.03L88.7985 71.0591Z" fill="#1C4639"/>
<path d="M92.7062 74.6178C91.5686 74.6178 90.9561 73.9761 90.9561 73.2469C90.9561 71.9635 92.327 71.351 93.5812 71.0884C93.6396 71.0884 93.6396 71.0301 93.5812 71.0301C93.1437 71.0301 92.5603 71.0301 92.0645 70.6218C91.8019 70.3884 91.5978 70.0675 91.4811 69.63C91.4227 69.3967 91.3936 69.1342 91.3936 68.8716C91.3936 68.3174 91.5103 67.7632 91.6853 67.2674C92.4436 65.1672 94.2521 63.9421 95.623 63.9421C96.9939 63.9421 95.7689 63.9421 95.8272 63.9421C96.4981 64.0005 96.9064 64.2047 97.2856 64.7297C97.2856 64.7297 97.344 64.7297 97.344 64.7005C97.344 64.6422 97.4315 64.5255 97.4898 64.3797C97.6065 64.1463 97.8398 63.9713 98.1315 63.9713H99.1232C99.2983 63.9713 99.4149 64.1172 99.4149 64.263C99.4149 64.4088 99.4149 64.3505 99.4149 64.3797C98.8607 65.6339 97.869 67.8216 97.2565 69.1925C96.9064 69.98 96.6439 70.5926 96.4397 71.0593C96.4397 71.0593 96.4397 71.1176 96.4689 71.1176C98.2774 71.2926 99.9691 71.8468 101.603 72.226C103.849 72.7511 105.715 72.9261 107.174 72.9261C109.42 72.9261 110.791 72.576 111.316 72.576C111.841 72.576 112.22 72.8094 112.22 73.1011C112.22 73.3928 111.928 73.6844 111.228 73.8595C110.528 74.0636 109.42 74.2095 108.02 74.2095C106.62 74.2095 103.907 73.9761 101.311 73.2761C99.5899 72.8386 97.8107 72.226 96.0022 72.0802C95.973 72.0802 95.9439 72.0802 95.9147 72.1385C95.6814 72.6344 95.5063 72.9261 95.2438 73.2761C94.6605 74.0636 93.8437 74.6178 92.677 74.6178H92.7062ZM92.4437 73.6553C93.2895 73.6553 93.8437 72.6927 94.1354 72.051C94.1354 72.051 94.1354 71.9927 94.1063 72.0218C93.8146 72.0802 93.5229 72.1385 93.2895 72.1969C92.7645 72.3135 92.4436 72.5177 92.2395 72.6636C92.0353 72.8386 91.9478 73.0427 91.9478 73.2178C91.9478 73.4803 92.152 73.6553 92.4728 73.6553H92.4437ZM93.6104 69.805C94.7188 69.805 95.5355 68.6383 96.0314 67.6466C96.5856 66.4215 96.6731 66.3048 96.6731 65.9839C96.6731 65.6631 96.3814 65.3422 95.9439 65.3422C95.5063 65.3422 95.1563 65.4881 94.748 65.7506C94.0479 66.2173 93.4645 66.9465 93.1145 67.8507C92.9395 68.3174 92.8812 68.6675 92.8812 68.9591C92.8812 69.5425 93.202 69.7759 93.6104 69.7759V69.805Z" fill="#1C4639"/>
<path d="M102.331 71.1175C100.406 71.1175 99.4434 69.9507 99.4434 68.4923C99.4434 67.0339 99.6475 67.1214 100.027 66.4505C100.785 65.1087 102.185 63.8837 103.702 63.8837C105.219 63.8837 105.54 64.6421 105.54 65.4879C105.54 66.3338 105.365 66.4213 104.956 66.8297C103.994 67.8506 102.535 68.0839 101.223 68.2006C101.193 68.2006 101.164 68.2006 101.164 68.259C101.135 69.1632 101.718 69.8632 102.856 69.8632C103.994 69.8632 103.585 69.8049 103.994 69.659C104.869 69.3965 105.715 68.6965 106.356 67.5589C106.444 67.4131 106.56 67.3547 106.706 67.3547C106.911 67.3547 107.115 67.5297 107.115 67.8506C107.115 68.1714 107.056 68.1714 106.94 68.3465C105.89 70.1257 104.373 71.1466 102.302 71.1466L102.331 71.1175ZM101.485 67.2089C102.244 67.0922 103.352 66.8589 103.935 66.3338C104.198 66.1005 104.373 65.8088 104.373 65.5754C104.373 65.3421 104.256 65.2254 103.964 65.2254C103.673 65.2254 103.673 65.2254 103.498 65.3129C102.71 65.5463 101.923 66.2171 101.485 67.1797C101.485 67.1797 101.485 67.2089 101.514 67.2089H101.485Z" fill="#1C4639"/>
<path d="M110.47 71.059C109.624 71.059 108.866 70.709 108.632 69.8923C108.574 69.7464 108.574 69.6006 108.574 69.4256C108.574 69.1922 108.632 68.9589 108.691 68.7255C108.924 68.113 109.128 67.588 109.478 66.8004C109.478 66.8004 109.478 66.7421 109.478 66.7129C109.478 66.6546 109.449 66.5671 109.391 66.5379C109.128 66.4212 108.603 66.1879 108.37 66.0712C108.282 66.042 108.253 66.0712 108.195 66.1295C107.611 67.2088 107.116 68.0546 106.999 68.2588C106.882 68.4922 106.649 68.5797 106.474 68.5797C106.299 68.5797 106.328 68.5797 106.27 68.5505C106.153 68.4922 106.065 68.4047 106.065 68.2297C106.065 68.0546 106.124 67.938 106.24 67.7338C106.707 66.9462 107.115 66.1295 107.378 65.6628C107.378 65.6628 107.378 65.6045 107.378 65.5753C107.115 65.4295 106.94 65.2253 106.795 64.9919C106.678 64.7878 106.62 64.5544 106.62 64.3502C106.62 64.1461 106.62 64.0586 106.707 63.9127C106.824 63.5919 107.116 63.3585 107.436 63.271C107.553 63.2418 107.641 63.2127 107.757 63.2127C108.02 63.2127 108.282 63.3002 108.486 63.5043C108.72 63.7085 108.836 64.0294 108.836 64.3794C108.836 64.7294 108.836 64.6128 108.807 64.7294C108.807 64.7878 108.778 64.8753 108.749 64.9919C108.749 64.9919 108.749 65.0503 108.778 65.0503C109.361 65.2253 109.916 65.3711 110.266 65.4295C110.674 65.517 111.082 65.6628 111.287 66.0712C111.345 66.1879 111.374 66.3337 111.374 66.4504C111.374 66.6837 111.287 66.9171 111.199 67.1504L110.674 68.5505C110.528 68.9005 110.412 69.163 110.412 69.3672C110.412 69.5714 110.47 69.6006 110.587 69.6881C110.674 69.7756 110.82 69.8048 110.966 69.8048C111.112 69.8048 111.316 69.7464 111.491 69.6589C112.22 69.2506 112.92 68.2297 113.328 67.5588C113.416 67.4129 113.533 67.3546 113.678 67.3546C113.883 67.3546 114.087 67.5296 114.087 67.8505C114.087 68.1713 114.058 68.1713 113.941 68.3463C113.766 68.638 113.62 68.9297 113.416 69.2214C112.687 70.3006 111.812 71.1173 110.528 71.1173L110.47 71.059ZM107.757 64.7586H107.816C107.816 64.7003 107.845 64.6419 107.874 64.5836C107.874 64.5253 107.874 64.4669 107.874 64.4377C107.874 64.3502 107.874 64.2919 107.816 64.2627C107.816 64.2627 107.757 64.2336 107.728 64.2336C107.699 64.2336 107.699 64.2336 107.67 64.2336C107.611 64.2336 107.582 64.2919 107.553 64.3502C107.553 64.3502 107.553 64.4086 107.553 64.4377C107.553 64.4961 107.553 64.5836 107.611 64.6419C107.641 64.7003 107.699 64.7586 107.757 64.8169V64.7586Z" fill="#1C4639"/>
<path d="M119.629 68.8132C119.629 67.3547 120.883 66.1588 122.371 66.1588C123.858 66.1588 122.867 66.3338 122.867 66.538C122.867 66.7422 122.692 66.9755 122.429 67.0047C121.35 67.2089 120.912 67.8506 120.912 68.4631C120.912 69.0757 121.35 69.6007 122.05 69.6007C122.75 69.6007 123.858 68.7548 124.558 67.7048C125.638 65.9547 126.367 63.6212 127.738 61.6377C127.738 61.6377 127.738 61.5794 127.709 61.5794C126.338 61.0543 125.113 60.4126 123.771 60.4126C122.429 60.4126 121.233 60.8793 120.912 62.0752C120.854 62.2794 120.825 62.4544 120.825 62.6294C120.825 63.4753 121.437 63.9129 122.05 63.9129C122.662 63.9129 122.808 63.7378 123.012 63.417C123.129 63.2128 123.304 63.1253 123.45 63.1253C123.654 63.1253 123.829 63.3003 123.829 63.5337C123.829 63.767 123.829 63.6795 123.771 63.767C123.421 64.5254 122.721 64.8754 122.021 64.8754C120.941 64.8754 119.862 64.0587 119.862 62.6586C119.862 61.2585 119.921 62.0169 120.037 61.6669C120.562 60.0334 122.137 59.0417 124.004 59.0417C126.95 59.0417 128.817 61.1418 130.684 61.1418C132.551 61.1418 131.909 60.7626 132.026 59.8001C132.055 59.5084 132.259 59.3334 132.434 59.3334C132.609 59.3334 132.871 59.5667 132.871 60.0918C132.871 60.9668 132.317 62.1919 130.567 62.1919C128.817 62.1919 129.605 62.1336 129.138 62.0461C129.138 62.0461 129.08 62.0461 129.08 62.0752C128.204 63.7962 127.621 66.0713 126.513 68.0256C125.55 69.7174 124.15 71.1758 122.225 71.1758C120.3 71.1758 119.658 70.0966 119.658 68.8423L119.629 68.8132Z" fill="#1C4639"/>
<path d="M128.555 68.5212C128.555 67.9086 128.73 67.2086 129.138 66.4794C129.925 65.0793 131.355 63.9125 132.93 63.9125C134.505 63.9125 135.263 64.9626 135.263 66.421C135.263 67.8794 135.088 67.7919 134.68 68.5503V68.6087C134.884 68.667 135.059 68.7253 135.234 68.7253C135.876 68.7253 136.372 68.2586 136.868 67.4128C136.955 67.2669 137.101 67.1794 137.218 67.1794C137.422 67.1794 137.597 67.3544 137.597 67.6461C137.597 67.9378 137.538 68.0545 137.363 68.317C136.751 69.3379 135.876 69.8921 134.913 69.8921C133.951 69.8921 134.272 69.8337 133.922 69.7171C133.892 69.7171 133.834 69.7171 133.834 69.7171C132.988 70.7088 131.996 71.1172 131.121 71.1172C129.575 71.1172 128.525 70.0088 128.525 68.4628L128.555 68.5212ZM131.53 69.7462C131.996 69.7462 132.521 69.5421 132.988 69.1045C132.988 69.1045 132.988 69.0462 132.988 69.017C132.784 68.7545 132.609 68.4628 132.463 68.0836C132.346 67.7336 132.259 67.2961 132.259 66.8877C132.259 66.2168 132.463 65.546 132.988 65.1376C133.047 65.1084 133.047 65.0793 132.988 65.0793C132.055 65.1376 130.801 65.896 130.392 67.7919C130.334 67.9961 130.334 68.2003 130.334 68.3753C130.334 69.2504 130.859 69.7171 131.559 69.7171L131.53 69.7462ZM133.892 67.9086C133.892 67.9086 133.922 67.9086 133.951 67.9086C134.184 67.3836 134.301 66.8877 134.301 66.5085C134.301 66.1293 134.301 66.3627 134.301 66.3043C134.242 66.0418 134.126 65.9543 134.009 65.9543C133.892 65.9543 133.688 66.1585 133.63 66.421C133.63 66.5377 133.63 66.6252 133.63 66.7419C133.63 67.1211 133.747 67.5586 133.951 67.9378L133.892 67.9086Z" fill="#1C4639"/>
<path d="M137.888 74.6178C136.75 74.6178 136.138 73.9761 136.138 73.2469C136.138 72.0218 137.392 71.4384 138.588 71.0884C138.617 71.0884 138.617 71.03 138.588 71.03C137.625 71.0592 136.925 70.5925 136.692 69.6299C136.634 69.3966 136.604 69.1341 136.604 68.8716C136.604 68.3174 136.721 67.7632 136.896 67.2673C137.654 65.1672 139.463 63.9421 140.834 63.9421C142.205 63.9421 140.98 63.9421 141.038 63.9421C141.709 64.0004 142.117 64.2046 142.496 64.7296C142.496 64.7296 142.555 64.7296 142.555 64.7005C142.555 64.6421 142.642 64.5254 142.701 64.3796C142.817 64.1463 143.051 63.9712 143.342 63.9712H144.334C144.509 63.9712 144.626 64.1171 144.626 64.2629C144.626 64.4088 144.626 64.3504 144.626 64.3796C143.897 66.0422 142.438 69.2216 142.03 70.1842C142.03 70.1842 142.03 70.2425 142.03 70.2133C142.496 70.0966 142.905 69.98 143.284 69.7758C143.867 69.4841 144.626 68.9007 145.442 67.4423C145.53 67.2965 145.647 67.2381 145.792 67.2381C145.997 67.2381 146.201 67.4131 146.201 67.734C146.201 68.0548 146.143 68.0548 146.055 68.2299C145.442 69.3091 144.859 70.1258 143.78 70.7675C142.992 71.2342 142.146 71.4092 141.446 71.5551C141.417 71.5551 141.359 71.5842 141.359 71.6134C140.659 73.1885 139.755 74.5594 137.917 74.5594L137.888 74.6178ZM137.625 73.6844C138.471 73.6844 139.025 72.7218 139.317 72.0801C139.317 72.0801 139.317 72.0218 139.288 72.0509C138.996 72.1093 138.705 72.1676 138.471 72.226C137.946 72.3426 137.625 72.5468 137.421 72.6926C137.217 72.8677 137.129 73.0718 137.129 73.2469C137.129 73.5094 137.334 73.6844 137.654 73.6844H137.625ZM138.821 69.805C139.93 69.805 140.746 68.6382 141.242 67.6465C141.796 66.4214 141.884 66.3047 141.884 65.9839C141.884 65.663 141.592 65.3422 141.155 65.3422C140.717 65.3422 140.367 65.488 139.959 65.7505C139.259 66.2172 138.675 66.9464 138.325 67.8507C138.15 68.3174 138.092 68.6674 138.092 68.9591C138.092 69.5424 138.413 69.7758 138.821 69.7758V69.805Z" fill="#1C4639"/>
<path d="M148.155 71.1175C146.23 71.1175 145.268 69.9507 145.268 68.4923C145.268 67.0339 145.472 67.1214 145.851 66.4505C146.609 65.1087 148.009 63.8837 149.526 63.8837C151.043 63.8837 151.364 64.642 151.364 65.4879C151.364 66.3338 151.189 66.4213 150.78 66.8297C149.818 67.8506 148.359 68.0839 147.047 68.2006C147.018 68.2006 146.989 68.2006 146.989 68.2589C146.959 69.1632 147.543 69.8632 148.68 69.8632C149.818 69.8632 149.41 69.8049 149.818 69.659C150.693 69.3965 151.539 68.6965 152.181 67.5589C152.268 67.4131 152.385 67.3547 152.531 67.3547C152.735 67.3547 152.939 67.5297 152.939 67.8506C152.939 68.1714 152.881 68.1714 152.764 68.3465C151.714 70.1257 150.197 71.1466 148.126 71.1466L148.155 71.1175ZM147.28 67.2089C148.039 67.0922 149.147 66.8589 149.73 66.3338C149.993 66.1005 150.168 65.8088 150.168 65.5754C150.168 65.3421 150.051 65.2254 149.76 65.2254C149.468 65.2254 149.468 65.2254 149.293 65.3129C148.505 65.5463 147.718 66.2171 147.28 67.1797C147.28 67.1797 147.28 67.2089 147.309 67.2089H147.28Z" fill="#1C4639"/>
<path d="M153.523 71.059C152.268 71.059 151.568 70.359 151.568 69.4256C151.568 68.4922 151.598 68.9881 151.685 68.7255C151.889 68.1422 153.435 64.6419 154.514 62.2209V62.1626C154.252 62.1626 153.96 62.1626 153.698 62.1626C153.289 62.1626 153.085 61.9876 153.085 61.8126C153.085 61.6376 153.289 61.4334 153.698 61.4334C154.106 61.4334 154.485 61.4334 154.864 61.4042C154.894 61.4042 154.923 61.3751 154.952 61.3459C155.244 60.675 155.477 60.1791 155.564 60.0041C155.681 59.7416 155.914 59.5666 156.206 59.5666H157.198C157.402 59.5666 157.548 59.8 157.46 59.975C157.46 60.0041 157.14 60.675 156.848 61.3459C156.848 61.3459 156.848 61.4042 156.877 61.4042C158.54 61.4334 159.998 61.5209 161.515 61.5501C161.894 61.5501 162.273 61.5501 162.623 61.5501C166.24 61.5501 167.874 61.0834 168.836 60.9375C169.04 60.9375 169.215 60.8792 169.361 60.8792C169.828 60.8792 170.149 61.025 170.149 61.3751C170.149 61.7251 169.595 62.0459 168.924 62.1918C167.728 62.4835 165.978 62.571 164.344 62.571C162.711 62.571 162.244 62.5418 161.456 62.4835C159.881 62.396 158.277 62.2501 156.498 62.1918C156.498 62.1918 156.439 62.1918 156.439 62.2209C156.235 62.6585 156.089 63.0085 156.06 63.0377C154.369 66.8004 153.96 67.7046 153.581 68.6964C153.493 68.9005 153.464 69.1047 153.464 69.2506C153.464 69.6006 153.668 69.7464 153.96 69.7464C154.252 69.7464 154.923 69.4547 155.389 68.9589C155.827 68.4922 156.206 67.9088 156.469 67.4713C156.556 67.3254 156.673 67.2671 156.819 67.2671C157.023 67.2671 157.227 67.4421 157.227 67.763C157.227 68.0838 157.169 68.0838 157.081 68.2588C156.498 69.2214 155.885 70.1548 155.039 70.6507C154.573 70.9132 154.077 71.0299 153.61 71.0299L153.523 71.059Z" fill="#1C4639"/>
<path d="M161.66 71.0588C160.639 71.0588 159.822 70.5046 159.822 69.4253C159.822 68.3461 159.88 68.8419 159.997 68.5211C160.114 68.1419 160.435 67.4419 160.901 66.3043C161.018 66.0126 161.076 65.7793 161.076 65.6334C161.076 65.3126 160.872 65.1959 160.639 65.1959C159.53 65.1959 158.539 66.8585 158.13 67.7919C157.751 68.6669 157.314 69.6295 156.876 70.6212C156.759 70.8837 156.526 71.0588 156.234 71.0588H155.272C155.068 71.0588 154.922 70.8546 155.009 70.6504C156.409 67.471 158.451 62.5707 159.735 60.7623C160.318 59.9164 161.018 59.2455 161.747 59.2455C162.476 59.2455 162.535 59.508 162.535 60.1497C162.535 60.7914 162.447 60.8206 162.272 61.2873C161.893 62.1915 161.251 63.1249 160.61 64.0291C160.61 64.0291 160.61 64.0875 160.668 64.0875C160.814 64.0875 160.931 64.0583 161.076 64.0583C162.01 64.0583 162.797 64.6417 162.797 65.7793C162.797 66.9168 162.71 66.596 162.506 67.121C162.331 67.5585 161.835 68.6961 161.689 69.1628C161.689 69.2211 161.66 69.3086 161.66 69.367C161.66 69.6587 161.893 69.8045 162.214 69.8045C162.535 69.8045 162.564 69.7462 162.739 69.6587C163.468 69.2503 164.168 68.2294 164.577 67.5585C164.664 67.4127 164.781 67.3544 164.927 67.3544C165.131 67.3544 165.335 67.5294 165.335 67.8502C165.335 68.1711 165.306 68.1711 165.189 68.3461C165.014 68.6378 164.868 68.9295 164.664 69.2211C163.935 70.3295 163.06 71.1171 161.747 71.1171L161.66 71.0588ZM159.851 63.4166C160.347 62.8332 161.018 61.754 161.31 61.1123C161.426 60.8789 161.572 60.5289 161.572 60.3539C161.572 60.1789 161.543 60.2081 161.456 60.2081C161.31 60.2081 161.106 60.4706 160.756 61.1123C160.405 61.8415 159.968 62.8916 159.793 63.3874C159.793 63.4458 159.793 63.4458 159.822 63.3874L159.851 63.4166Z" fill="#1C4639"/>
<path d="M167.231 71.1174C165.306 71.1174 164.344 69.9507 164.344 68.4922C164.344 67.0338 164.548 67.1213 164.927 66.4504C165.686 65.1087 167.086 63.8836 168.602 63.8836C170.119 63.8836 170.44 64.642 170.44 65.4879C170.44 66.3338 170.265 66.4213 169.857 66.8296C168.894 67.8505 167.436 68.0839 166.123 68.2005C166.094 68.2005 166.065 68.2005 166.065 68.2589C166.036 69.1631 166.619 69.8632 167.756 69.8632C168.894 69.8632 168.486 69.8048 168.894 69.659C169.769 69.3965 170.615 68.6964 171.257 67.5588C171.344 67.413 171.461 67.3547 171.607 67.3547C171.811 67.3547 172.015 67.5297 172.015 67.8505C172.015 68.1714 171.957 68.1714 171.84 68.3464C170.79 70.1257 169.273 71.1466 167.202 71.1466L167.231 71.1174ZM166.356 67.2088C167.115 67.0921 168.223 66.8588 168.807 66.3338C169.069 66.1004 169.244 65.8087 169.244 65.5754C169.244 65.342 169.127 65.2254 168.836 65.2254C168.544 65.2254 168.544 65.2253 168.369 65.3129C167.581 65.5462 166.794 66.2171 166.356 67.1796C166.356 67.1796 166.356 67.2088 166.386 67.2088H166.356Z" fill="#1C4639"/>
<path d="M175.37 71.059C174.524 71.059 173.766 70.709 173.533 69.8923C173.474 69.7464 173.474 69.6006 173.474 69.4256C173.474 69.1922 173.533 68.9589 173.591 68.7255C173.824 68.113 174.029 67.588 174.379 66.8004C174.379 66.8004 174.379 66.7421 174.379 66.7129C174.379 66.6546 174.349 66.5671 174.291 66.5379C174.029 66.4212 173.503 66.1879 173.27 66.0712C173.183 66.042 173.153 66.0712 173.095 66.1295C172.512 67.2088 172.016 68.0546 171.899 68.2588C171.783 68.4922 171.549 68.5797 171.374 68.5797C171.199 68.5797 171.228 68.5797 171.17 68.5505C171.053 68.4922 170.966 68.4047 170.966 68.2297C170.966 68.0546 171.024 67.938 171.141 67.7338C171.608 66.9462 172.016 66.1295 172.278 65.6628C172.278 65.6628 172.278 65.6045 172.278 65.5753C172.016 65.4295 171.841 65.2253 171.695 64.9919C171.578 64.7878 171.52 64.5544 171.52 64.3502C171.52 64.1461 171.52 64.0586 171.608 63.9127C171.724 63.5919 172.016 63.3585 172.337 63.271C172.453 63.2418 172.541 63.2127 172.658 63.2127C172.92 63.2127 173.183 63.3002 173.387 63.5043C173.62 63.7085 173.737 64.0294 173.737 64.3794C173.737 64.7294 173.737 64.6128 173.708 64.7294C173.708 64.7878 173.678 64.8753 173.649 64.9919C173.649 64.9919 173.649 65.0503 173.678 65.0503C174.262 65.2253 174.816 65.3711 175.166 65.4295C175.574 65.517 175.983 65.6628 176.187 66.0712C176.245 66.1879 176.274 66.3337 176.274 66.4504C176.274 66.6837 176.187 66.9171 176.099 67.1504L175.574 68.5505C175.429 68.9005 175.312 69.163 175.312 69.3672C175.312 69.5714 175.37 69.6006 175.487 69.6881C175.574 69.7756 175.72 69.8048 175.866 69.8048C176.012 69.8048 176.216 69.7464 176.391 69.6589C177.12 69.2506 177.82 68.2297 178.229 67.5588C178.316 67.4129 178.433 67.3546 178.579 67.3546C178.783 67.3546 178.987 67.5296 178.987 67.8505C178.987 68.1713 178.958 68.1713 178.841 68.3463C178.666 68.638 178.52 68.9297 178.316 69.2214C177.587 70.3006 176.712 71.1173 175.429 71.1173L175.37 71.059ZM172.628 64.7586H172.687C172.687 64.7003 172.716 64.6419 172.745 64.5836C172.745 64.5253 172.745 64.4669 172.745 64.4377C172.745 64.3502 172.745 64.2919 172.687 64.2627C172.687 64.2627 172.628 64.2336 172.599 64.2336C172.57 64.2336 172.57 64.2336 172.541 64.2336C172.483 64.2336 172.453 64.2919 172.424 64.3502C172.424 64.3502 172.424 64.4086 172.424 64.4377C172.424 64.4961 172.424 64.5836 172.483 64.6419C172.512 64.7003 172.57 64.7586 172.628 64.8169V64.7586Z" fill="#1C4639"/>
<path d="M14.2134 33.0233L30.1686 55.5122L29.5269 59.2458L20.4847 65.6629L16.7511 65.0212L0.795898 42.5322L1.43761 38.7986L10.4799 32.3816L14.2134 33.0233ZM10.7132 38.7986L7.32965 41.2196L7.18381 42.0655L19.3471 59.2166L20.193 59.3625L23.5765 56.9415L23.7515 56.0664L11.5883 38.9153L10.7132 38.7986Z" fill="#1C4639"/>
<path d="M35.8858 55.0747L20.8057 25.7895L26.0852 23.0768L41.6903 37.7486L32.4439 19.7808L37.3442 17.2723L52.4244 46.5575L47.1448 49.2702L31.5397 34.5984L40.7861 52.5662L35.8858 55.0747Z" fill="#1C4639"/>
<path d="M57.0038 44.72L46.0947 13.6263L60.9707 8.40518L62.75 13.4222L53.066 16.8349L55.7787 24.5646L62.9833 22.0269L64.7626 27.0439L57.558 29.5815L60.4456 37.8362L70.1296 34.4235L71.9089 39.4405L57.0329 44.6617L57.0038 44.72Z" fill="#1C4639"/>
<path d="M76.11 38.3318L69.3721 6.07143L83.2855 3.15458L86.4648 5.22554L89.4692 19.664L87.3982 22.8433L92.6486 34.8608L87.3399 35.9692L82.0896 23.9517L78.8518 24.6226L81.477 37.1943L76.0808 38.3318H76.11ZM82.9646 18.3222L83.4313 17.5638L81.7687 9.60082L81.0395 9.13413L75.8766 10.2134L77.8018 19.4306L82.9646 18.3514V18.3222Z" fill="#1C4639"/>
<path d="M121.699 26.198L114.932 26.1397L113.386 33.2276L107.757 33.1693L115.837 0.296352L121.204 0.354691L128.729 33.3735L123.099 33.3152L121.699 26.198ZM120.649 20.8602L118.433 9.74696L116.041 20.831H120.649V20.8602Z" fill="#1C4639"/>
<path d="M131.967 31.0689L135.846 3.76717L138.88 1.49202L149.876 3.06713L152.151 6.10066L151.189 12.8386L145.734 12.051L146.23 8.60915L145.676 7.87994L141.563 7.29657L140.834 7.85077L137.888 28.5313L138.442 29.2605L142.555 29.8439L143.284 29.2897L143.78 25.8478L149.235 26.6353L148.272 33.3733L145.238 35.6484L134.242 34.0733L131.967 31.0398V31.0689Z" fill="#1C4639"/>
<path d="M175.282 14.7637L169.565 13.1886L162.186 39.7903L156.877 38.3319L164.257 11.7302L158.54 10.1551L159.969 5.02143L176.712 9.65923L175.282 14.7929V14.7637Z" fill="#1C4639"/>
<path d="M171.577 42.8824L183.449 12.1388L188.582 14.1222L176.711 44.8659L171.577 42.8824Z" fill="#1C4639"/>
<path d="M192.113 52.0996L185.842 48.9203L195.292 16.7765L200.193 19.285L192.784 42.9991L207.602 23.0478L212.502 25.5563L192.055 52.1288L192.113 52.0996Z" fill="#1C4639"/>
<path d="M200.63 56.8539L219.269 29.698L232.278 38.6235L229.273 43.028L220.815 37.2234L216.177 43.9614L222.477 48.2783L219.444 52.6828L213.143 48.3658L208.185 55.5705L216.643 61.375L213.639 65.7795L200.63 56.8539Z" fill="#1C4639"/>
<path d="M26.5811 124.058V91.127H32.5314L39.6777 111.341V91.127H45.1906V124.058H39.2402L32.0939 103.844V124.058H26.5811Z" fill="#1C4639"/>
<path d="M51.1699 124.058V91.127H66.9501V96.4648H56.6828V104.661H64.3249V109.999H56.6828V118.75H66.9501V124.087H51.1699V124.058Z" fill="#1C4639"/>
<path d="M97.9282 124.058H90.9861L87.5733 101.424L84.1606 124.058H77.2185L70.9473 91.127H76.5476L80.6312 114.929L84.569 91.127H90.636L94.5738 114.929L98.6574 91.127H104.258L97.9865 124.058H97.9282Z" fill="#1C4639"/>
<path d="M132.987 124.058H127.532V112.566L119.978 91.0978H125.957L130.245 104.924L134.533 91.0978H140.512L132.958 112.566V124.058H132.987Z" fill="#1C4639"/>
<path d="M160.96 93.8105V121.375L158.276 124.058H147.192L144.509 121.375V93.8105L147.192 91.127H158.276L160.96 93.8105ZM154.747 96.494H150.576L149.963 97.1066V118.137L150.576 118.75H154.747L155.389 118.137V97.1066L154.747 96.494Z" fill="#1C4639"/>
<path d="M166.939 124.058V91.127H181.144L183.828 93.8105V108.541L181.144 111.224L183.828 124.058H178.403L175.719 111.224H172.423V124.058H166.91H166.939ZM177.732 105.915L178.344 105.274V97.1357L177.732 96.5232H172.452V105.945H177.732V105.915Z" fill="#1C4639"/>
<path d="M200.833 105.682L208.708 124.058H202.67L197.478 111.924L194.882 116.679V124.058H189.457V91.127H194.882V106.178L202.641 91.127H208.708L200.833 105.682Z" fill="#1C4639"/>
</svg>
